# xmcd
#
# Track frame offsets: 
#        150
#        32902
#        59321
#        88417
#        113464
#        137420
#        152030
#        177377
#        203321
#        230576
#        266074
#        296586
#
# Disc length: 4293 seconds
#
# Revision: 0
# Processed by: cddbd v1.5.2PL0 Copyright (c) Steve Scherf et al.
# Submitted via: ExactAudioCopy v1.0b3
#
DISCID=a410c30c
DTITLE=Various Artist - Hands Up... Let´s Party! - CD 2
DYEAR=1900
DGENRE=
TTITLE0=Delta 3000 - Ready... Go! (Club Mix)
TTITLE1=Blue 6 - Day After The Party (Full Gainer Mix)
TTITLE2=Clubbstars - Let The Bass Kick (Scotty Mix)
TTITLE3=Full Gainer Feat. Scotty - Get Down (Club Mix)
TTITLE4=Burnie B. - The Music Turns Me On (DJ Scotty Rmx)
TTITLE5=Blue 6 - Leave U (Tommy Gant Rmx)
TTITLE6=Clubbstars - Ladadi (Club Mix)
TTITLE7=Dix - Make Yo! Body Pump (Let´s Make Action Mix)
TTITLE8=Basquez - Fire Power (DJ Scotty Rmx)
TTITLE9=Dixi Disco - A Touch Of Velvet (Tommy Gant Rmx)
TTITLE10=Full Gainer - Love Tunes (Paolo Petrillo Rmx)
TTITLE11=Ri.Ba and JMK! - AB.. Z! (Jeff Paul Parker and Tom Belmond Rmx)
EXTD=
EXTT0=
EXTT1=
EXTT2=
EXTT3=
EXTT4=
EXTT5=
EXTT6=
EXTT7=
EXTT8=
EXTT9=
EXTT10=
EXTT11=
PLAYORDER=
